<svg width="561" height="422" viewBox="0 0 561 422" fill="none" xmlns="http://www.w3.org/2000/svg">
<g filter="url(#filter0_d)">
<rect x="391.305" y="40.3845" width="125.695" height="125.695" rx="12" fill="white"/>
</g>
<g clip-path="url(#clip0)" filter="url(#filter1_d)">
<path d="M452.058 134.656C469.412 134.656 483.481 120.587 483.481 103.232C483.481 85.8772 469.412 71.8083 452.058 71.8083C434.703 71.8083 420.634 85.8772 420.634 103.232C420.634 120.587 434.703 134.656 452.058 134.656Z" fill="#F7931A"/>
<path d="M466.176 99.3434C466.793 95.2269 463.656 93.0135 459.371 91.5365L460.761 85.9588L457.367 85.1143L456.012 90.5447C455.121 90.3208 454.205 90.1127 453.292 89.9045L454.657 84.4387L451.263 83.5922L449.873 89.168C449.134 88.9991 448.408 88.8341 447.705 88.6573L447.709 88.6397L443.026 87.4711L442.123 91.0966C442.123 91.0966 444.643 91.674 444.59 91.7094C445.965 92.0531 446.212 92.9624 446.171 93.6851L444.588 100.039C444.682 100.062 444.804 100.098 444.941 100.151L444.582 100.062L442.363 108.963C442.194 109.379 441.768 110.006 440.805 109.768C440.841 109.817 438.338 109.153 438.338 109.153L436.653 113.038L441.072 114.14C441.893 114.346 442.698 114.562 443.49 114.765L442.086 120.405L445.478 121.25L446.868 115.672C447.795 115.921 448.695 116.153 449.574 116.373L448.188 121.927L451.582 122.772L452.986 117.143C458.776 118.239 463.128 117.797 464.96 112.561C466.437 108.346 464.888 105.913 461.841 104.328C464.061 103.817 465.73 102.358 466.176 99.3434ZM458.418 110.22C457.371 114.437 450.272 112.156 447.97 111.585L449.836 104.112C452.137 104.687 459.516 105.825 458.418 110.22ZM459.469 99.2825C458.512 103.118 452.605 101.168 450.69 100.691L452.379 93.9149C454.294 94.3922 460.467 95.2819 459.469 99.2825Z" fill="white"/>
</g>
<g filter="url(#filter2_d)">
<rect x="197.162" y="72.7416" width="54.7582" height="54.7582" rx="12" fill="white"/>
</g>
<g clip-path="url(#clip1)" filter="url(#filter3_d)">
<path d="M224.541 113.81C232.102 113.81 238.231 107.681 238.231 100.121C238.231 92.5602 232.102 86.4312 224.541 86.4312C216.981 86.4312 210.852 92.5602 210.852 100.121C210.852 107.681 216.981 113.81 224.541 113.81Z" fill="#7176A4"/>
<path d="M220.166 96.3649L224.541 110.103L218.049 106.036L220.166 96.3649L224.541 90.3877V94.5801L218.049 106.036H231.039L224.547 94.5801V90.3877L228.922 96.3649L231.039 106.036L224.547 110.103L228.922 96.3649" stroke="white" stroke-width="0.64" stroke-linecap="round" stroke-linejoin="round"/>
</g>
<g filter="url(#filter4_d)">
<rect x="269.344" y="61.5411" width="104.538" height="104.538" rx="12" fill="white"/>
</g>
<g filter="url(#filter5_d)">
<path d="M319.87 139.945C334.304 139.945 346.005 128.244 346.005 113.81C346.005 99.3766 334.304 87.6757 319.87 87.6757C305.436 87.6757 293.735 99.3766 293.735 113.81C293.735 128.244 305.436 139.945 319.87 139.945Z" fill="#627EEA"/>
<path d="M320.685 94.2094V108.698L332.93 114.17L320.685 94.2094Z" fill="white" fill-opacity="0.602"/>
<path d="M320.684 94.2094L308.437 114.17L320.684 108.698V94.2094Z" fill="white"/>
<path d="M320.685 123.559V133.403L332.938 116.45L320.685 123.559Z" fill="white" fill-opacity="0.602"/>
<path d="M320.684 133.403V123.557L308.437 116.45L320.684 133.403Z" fill="white"/>
<path d="M320.685 121.281L332.93 114.171L320.685 108.703V121.281Z" fill="white" fill-opacity="0.2"/>
<path d="M308.437 114.171L320.684 121.281V108.703L308.437 114.171Z" fill="white" fill-opacity="0.602"/>
</g>
<g filter="url(#filter6_d)">
<rect x="156.094" y="144.923" width="95.8269" height="95.8269" rx="12" fill="white"/>
</g>
<g clip-path="url(#clip2)" filter="url(#filter7_d)">
<path d="M202.41 216.793C215.641 216.793 226.367 206.067 226.367 192.836C226.367 179.605 215.641 168.88 202.41 168.88C189.179 168.88 178.453 179.605 178.453 192.836C178.453 206.067 189.179 216.793 202.41 216.793Z" fill="#BBBBCD"/>
<path fillRule="evenodd" clipRule="evenodd" d="M194.065 197.649L191.929 198.478L192.959 194.347L195.121 193.479L198.237 180.858H205.916L203.642 190.135L205.753 189.28L204.735 193.398L202.598 194.253L201.329 199.468H212.891L211.584 204.815H192.306L194.065 197.649Z" fill="white"/>
</g>
<g filter="url(#filter8_d)">
<rect x="230.764" y="258.173" width="95.8269" height="95.8269" rx="12" fill="white"/>
</g>
<g filter="url(#filter9_d)">
<g clip-path="url(#clip3)">
<path d="M277.08 330.043C290.311 330.043 301.037 319.317 301.037 306.086C301.037 292.855 290.311 282.13 277.08 282.13C263.849 282.13 253.123 292.855 253.123 306.086C253.123 319.317 263.849 330.043 277.08 330.043Z" fill="#246DD3"/>
<g filter="url(#filter10_d)">
<path d="M276.668 291.203C277.385 290.833 278.261 291.688 277.881 292.394C277.658 292.968 276.818 293.121 276.39 292.682C275.936 292.263 276.084 291.431 276.668 291.202V291.203ZM268.95 292.021C269.385 291.844 269.938 292.236 269.893 292.705C269.938 293.211 269.309 293.585 268.864 293.344C268.276 293.12 268.343 292.179 268.95 292.021ZM284.758 293.358C284.077 293.277 283.969 292.223 284.623 292.01C285.132 291.768 285.6 292.224 285.674 292.699C285.567 293.103 285.222 293.475 284.758 293.358ZM270.706 295.252C271.435 294.798 272.474 295.473 272.362 296.307C272.325 297.147 271.19 297.636 270.549 297.067C269.929 296.62 270.023 295.596 270.706 295.252ZM281.831 295.734C282.156 294.91 283.473 294.884 283.843 295.686C284.21 296.31 283.759 297.085 283.108 297.297C282.244 297.456 281.425 296.537 281.831 295.734ZM275.738 297.251C275.731 296.541 276.387 296.014 277.071 295.965C277.526 296.054 278.02 296.245 278.215 296.695C278.579 297.318 278.255 298.173 277.601 298.459C277.302 298.624 276.945 298.562 276.619 298.543C276.12 298.303 275.699 297.829 275.738 297.251ZM264.26 298.284C264.926 297.88 265.825 298.613 265.572 299.326C265.434 299.941 264.592 300.191 264.112 299.799C263.598 299.431 263.679 298.546 264.262 298.282L264.26 298.284ZM288.909 298.281C289.473 297.85 290.406 298.345 290.337 299.046C290.376 299.685 289.569 300.169 289.009 299.84C288.392 299.566 288.328 298.631 288.909 298.282V298.281ZM278.967 299.555C279.898 299.226 281.006 299.619 281.536 300.438C282.237 301.437 281.865 302.958 280.777 303.532C279.651 304.21 278.005 303.637 277.588 302.397C277.116 301.289 277.805 299.902 278.965 299.555H278.967ZM273.497 299.664C274.53 299.185 275.921 299.587 276.42 300.626C277.007 301.638 276.553 303.047 275.503 303.569C274.452 304.158 272.968 303.712 272.461 302.626C271.89 301.575 272.396 300.148 273.497 299.664ZM268.021 301.505C268.101 300.85 268.728 300.424 269.361 300.379C269.692 300.413 270 300.559 270.237 300.792C270.474 301.026 270.624 301.332 270.664 301.662C270.619 302.336 270.091 302.991 269.366 302.988C268.568 303.056 267.869 302.274 268.021 301.505ZM284.195 300.522C285.014 300.054 286.151 300.735 286.115 301.66C286.17 302.641 284.912 303.331 284.098 302.756C283.25 302.277 283.316 300.93 284.195 300.522ZM271.273 303.977C272.229 303.718 273.325 304.161 273.793 305.026C274.307 305.898 274.097 307.107 273.299 307.748C272.274 308.686 270.386 308.308 269.841 307.03C269.213 305.857 269.975 304.285 271.272 303.975L271.273 303.977ZM281.645 303.972C282.575 303.71 283.668 304.062 284.168 304.896C284.83 305.85 284.514 307.274 283.53 307.888C282.497 308.602 280.901 308.227 280.332 307.11C279.643 305.956 280.337 304.324 281.645 303.972ZM265.115 305.059C265.942 304.752 266.858 305.649 266.523 306.456C266.319 307.19 265.266 307.462 264.723 306.92C264.086 306.411 264.321 305.281 265.115 305.059ZM287.528 306.23C287.513 305.9 287.628 305.578 287.849 305.333C288.07 305.088 288.378 304.94 288.708 304.921C289.274 305.011 289.825 305.46 289.78 306.067C289.832 306.868 288.852 307.411 288.157 307.036C287.832 306.872 287.666 306.544 287.528 306.23ZM261.05 305.457C261.547 305.243 262.162 305.667 262.049 306.211C262.022 306.826 261.098 307.064 260.759 306.549C260.46 306.191 260.64 305.642 261.05 305.456V305.457ZM292.417 305.444C292.767 305.2 293.33 305.375 293.468 305.778C293.703 306.218 293.272 306.82 292.769 306.747C292.062 306.809 291.834 305.751 292.417 305.444ZM273.975 308.398C275.283 308.064 276.691 309.138 276.7 310.464C276.783 311.804 275.397 312.992 274.058 312.683C273.022 312.519 272.209 311.536 272.244 310.508C272.241 309.523 272.995 308.606 273.975 308.398ZM279.158 308.397C280.486 308.031 281.936 309.124 281.915 310.481C281.985 311.795 280.642 312.944 279.33 312.682C278.095 312.526 277.185 311.192 277.529 310.012C277.703 309.228 278.371 308.59 279.158 308.395V308.397ZM269.162 309.213C270.082 309.058 270.944 310.066 270.571 310.926C270.299 311.842 268.945 312.089 268.346 311.342C267.645 310.623 268.17 309.311 269.162 309.213ZM284.366 309.253C285.186 308.915 286.192 309.612 286.13 310.488C286.163 311.451 284.92 312.116 284.119 311.553C283.21 311.048 283.376 309.562 284.366 309.253ZM288.615 313.445C288.295 312.857 288.877 312.077 289.543 312.186C289.873 312.18 290.105 312.436 290.316 312.652C290.359 313.001 290.433 313.417 290.138 313.685C289.738 314.184 288.832 314.041 288.615 313.445ZM264.257 312.349C264.878 311.944 265.772 312.55 265.632 313.263C265.557 313.896 264.748 314.257 264.217 313.898C263.645 313.573 263.666 312.646 264.257 312.349ZM276.524 313.672C277.337 313.32 278.374 314.016 278.296 314.896C278.356 315.87 277.075 316.543 276.28 315.959C275.397 315.458 275.545 313.982 276.524 313.672ZM270.844 314.976C271.535 314.618 272.464 315.236 272.401 316C272.422 316.626 271.802 317.159 271.173 317.066C270.654 317.055 270.315 316.596 270.147 316.16C270.156 315.685 270.356 315.157 270.844 314.977V314.976ZM282.352 314.988C283.065 314.553 284.077 315.176 284.009 315.991C284.027 316.844 282.883 317.389 282.22 316.829C281.579 316.391 281.657 315.337 282.352 314.988ZM284.354 319.854C284.036 319.384 284.409 318.816 284.923 318.708C285.338 318.791 285.776 319.098 285.688 319.568C285.628 320.207 284.679 320.402 284.354 319.855V319.854ZM268.466 319.445C268.592 319.071 268.897 318.701 269.345 318.798C269.996 318.843 270.189 319.81 269.619 320.108C269.107 320.448 268.511 319.983 268.466 319.445ZM276.132 319.875C276.256 319.321 276.983 319.053 277.462 319.346C277.779 319.481 277.872 319.828 277.953 320.125C277.91 320.279 277.87 320.434 277.833 320.589C277.637 320.817 277.384 321.046 277.057 321.038C276.451 321.109 275.903 320.433 276.131 319.875H276.132Z" fill="black"/>
</g>
<path d="M276.668 291.203C277.385 290.833 278.261 291.688 277.881 292.394C277.658 292.968 276.818 293.121 276.39 292.682C275.936 292.263 276.084 291.431 276.668 291.202V291.203ZM268.95 292.021C269.385 291.844 269.938 292.236 269.893 292.705C269.938 293.211 269.309 293.585 268.864 293.344C268.276 293.12 268.343 292.179 268.95 292.021ZM284.758 293.358C284.077 293.277 283.969 292.223 284.623 292.01C285.132 291.768 285.6 292.224 285.674 292.699C285.567 293.103 285.222 293.475 284.758 293.358ZM270.706 295.252C271.435 294.798 272.474 295.473 272.362 296.307C272.325 297.147 271.19 297.636 270.549 297.067C269.929 296.62 270.023 295.596 270.706 295.252ZM281.831 295.734C282.156 294.91 283.473 294.884 283.843 295.686C284.21 296.31 283.759 297.085 283.108 297.297C282.244 297.456 281.425 296.537 281.831 295.734ZM275.738 297.251C275.731 296.541 276.387 296.014 277.071 295.965C277.526 296.054 278.02 296.245 278.215 296.695C278.579 297.318 278.255 298.173 277.601 298.459C277.302 298.624 276.945 298.562 276.619 298.543C276.12 298.303 275.699 297.829 275.738 297.251ZM264.26 298.284C264.926 297.88 265.825 298.613 265.572 299.326C265.434 299.941 264.592 300.191 264.112 299.799C263.598 299.431 263.679 298.546 264.262 298.282L264.26 298.284ZM288.909 298.281C289.473 297.85 290.406 298.345 290.337 299.046C290.376 299.685 289.569 300.169 289.009 299.84C288.392 299.566 288.328 298.631 288.909 298.282V298.281ZM278.967 299.555C279.898 299.226 281.006 299.619 281.536 300.438C282.237 301.437 281.865 302.958 280.777 303.532C279.651 304.21 278.005 303.637 277.588 302.397C277.116 301.289 277.805 299.902 278.965 299.555H278.967ZM273.497 299.664C274.53 299.185 275.921 299.587 276.42 300.626C277.007 301.638 276.553 303.047 275.503 303.569C274.452 304.158 272.968 303.712 272.461 302.626C271.89 301.575 272.396 300.148 273.497 299.664ZM268.021 301.505C268.101 300.85 268.728 300.424 269.361 300.379C269.692 300.413 270 300.559 270.237 300.792C270.474 301.026 270.624 301.332 270.664 301.662C270.619 302.336 270.091 302.991 269.366 302.988C268.568 303.056 267.869 302.274 268.021 301.505ZM284.195 300.522C285.014 300.054 286.151 300.735 286.115 301.66C286.17 302.641 284.912 303.331 284.098 302.756C283.25 302.277 283.316 300.93 284.195 300.522ZM271.273 303.977C272.229 303.718 273.325 304.161 273.793 305.026C274.307 305.898 274.097 307.107 273.299 307.748C272.274 308.686 270.386 308.308 269.841 307.03C269.213 305.857 269.975 304.285 271.272 303.975L271.273 303.977ZM281.645 303.972C282.575 303.71 283.668 304.062 284.168 304.896C284.83 305.85 284.514 307.274 283.53 307.888C282.497 308.602 280.901 308.227 280.332 307.11C279.643 305.956 280.337 304.324 281.645 303.972ZM265.115 305.059C265.942 304.752 266.858 305.649 266.523 306.456C266.319 307.19 265.266 307.462 264.723 306.92C264.086 306.411 264.321 305.281 265.115 305.059ZM287.528 306.23C287.513 305.9 287.628 305.578 287.849 305.333C288.07 305.088 288.378 304.94 288.708 304.921C289.274 305.011 289.825 305.46 289.78 306.067C289.832 306.868 288.852 307.411 288.157 307.036C287.832 306.872 287.666 306.544 287.528 306.23ZM261.05 305.457C261.547 305.243 262.162 305.667 262.049 306.211C262.022 306.826 261.098 307.064 260.759 306.549C260.46 306.191 260.64 305.642 261.05 305.456V305.457ZM292.417 305.444C292.767 305.2 293.33 305.375 293.468 305.778C293.703 306.218 293.272 306.82 292.769 306.747C292.062 306.809 291.834 305.751 292.417 305.444ZM273.975 308.398C275.283 308.064 276.691 309.138 276.7 310.464C276.783 311.804 275.397 312.992 274.058 312.683C273.022 312.519 272.209 311.536 272.244 310.508C272.241 309.523 272.995 308.606 273.975 308.398ZM279.158 308.397C280.486 308.031 281.936 309.124 281.915 310.481C281.985 311.795 280.642 312.944 279.33 312.682C278.095 312.526 277.185 311.192 277.529 310.012C277.703 309.228 278.371 308.59 279.158 308.395V308.397ZM269.162 309.213C270.082 309.058 270.944 310.066 270.571 310.926C270.299 311.842 268.945 312.089 268.346 311.342C267.645 310.623 268.17 309.311 269.162 309.213ZM284.366 309.253C285.186 308.915 286.192 309.612 286.13 310.488C286.163 311.451 284.92 312.116 284.119 311.553C283.21 311.048 283.376 309.562 284.366 309.253ZM288.615 313.445C288.295 312.857 288.877 312.077 289.543 312.186C289.873 312.18 290.105 312.436 290.316 312.652C290.359 313.001 290.433 313.417 290.138 313.685C289.738 314.184 288.832 314.041 288.615 313.445ZM264.257 312.349C264.878 311.944 265.772 312.55 265.632 313.263C265.557 313.896 264.748 314.257 264.217 313.898C263.645 313.573 263.666 312.646 264.257 312.349ZM276.524 313.672C277.337 313.32 278.374 314.016 278.296 314.896C278.356 315.87 277.075 316.543 276.28 315.959C275.397 315.458 275.545 313.982 276.524 313.672ZM270.844 314.976C271.535 314.618 272.464 315.236 272.401 316C272.422 316.626 271.802 317.159 271.173 317.066C270.654 317.055 270.315 316.596 270.147 316.16C270.156 315.685 270.356 315.157 270.844 314.977V314.976ZM282.352 314.988C283.065 314.553 284.077 315.176 284.009 315.991C284.027 316.844 282.883 317.389 282.22 316.829C281.579 316.391 281.657 315.337 282.352 314.988ZM284.354 319.854C284.036 319.384 284.409 318.816 284.923 318.708C285.338 318.791 285.776 319.098 285.688 319.568C285.628 320.207 284.679 320.402 284.354 319.855V319.854ZM268.466 319.445C268.592 319.071 268.897 318.701 269.345 318.798C269.996 318.843 270.189 319.81 269.619 320.108C269.107 320.448 268.511 319.983 268.466 319.445ZM276.132 319.875C276.256 319.321 276.983 319.053 277.462 319.346C277.779 319.481 277.872 319.828 277.953 320.125C277.91 320.279 277.87 320.434 277.833 320.589C277.637 320.817 277.384 321.046 277.057 321.038C276.451 321.109 275.903 320.433 276.131 319.875H276.132Z" fill="white"/>
</g>
</g>
<g filter="url(#filter11_d)">
<rect x="138.67" y="258.173" width="74.6703" height="74.6703" rx="12" fill="white"/>
</g>
<g filter="url(#filter12_d)">
<path d="M174.761 314.176C185.071 314.176 193.429 305.818 193.429 295.508C193.429 285.198 185.071 276.841 174.761 276.841C164.452 276.841 156.094 285.198 156.094 295.508C156.094 305.818 164.452 314.176 174.761 314.176Z" fill="white"/>
<g clip-path="url(#clip4)">
<path d="M174.761 314.176C185.071 314.176 193.429 305.818 193.429 295.508C193.429 285.198 185.071 276.841 174.761 276.841C164.452 276.841 156.094 285.198 156.094 295.508C156.094 305.818 164.452 314.176 174.761 314.176Z" fill="#26A17B"/>
<path fillRule="evenodd" clipRule="evenodd" d="M177.004 297.122V297.12C176.876 297.129 176.214 297.169 174.738 297.169C173.56 297.169 172.73 297.134 172.439 297.12V297.123C167.902 296.924 164.517 296.134 164.517 295.189C164.517 294.245 167.902 293.455 172.439 293.252V296.337C172.735 296.358 173.584 296.408 174.758 296.408C176.166 296.408 176.872 296.35 177.004 296.338V293.255C181.531 293.456 184.909 294.246 184.909 295.189C184.909 296.134 181.531 296.922 177.004 297.122ZM177.004 292.934V290.173H183.321V285.964H166.122V290.173H172.439V292.933C167.305 293.168 163.444 294.186 163.444 295.404C163.444 296.622 167.305 297.638 172.439 297.875V306.721H177.004V297.872C182.129 297.637 185.981 296.621 185.981 295.404C185.981 294.187 182.129 293.171 177.004 292.934Z" fill="white"/>
</g>
</g>
<g filter="url(#filter13_d)">
<rect x="344.014" y="183.503" width="90.8489" height="90.8489" rx="12" fill="white"/>
</g>
<g filter="url(#filter14_d)">
<g clip-path="url(#clip5)">
<path d="M386.409 251.639C398.953 251.639 409.122 241.471 409.122 228.927C409.122 216.384 398.953 206.215 386.409 206.215C373.866 206.215 363.697 216.384 363.697 228.927C363.697 241.471 373.866 251.639 386.409 251.639Z" fill="#5745E8"/>
<g clip-path="url(#clip6)">
<path d="M401.221 222.511V225.125L400.143 225.687C399.325 226.115 398.837 227.005 398.906 227.944C398.93 228.27 398.943 228.6 398.943 228.93C398.941 233.756 396.297 238.174 392.099 240.365C387.901 242.556 382.858 242.151 379.045 239.315L381.259 238.16L381.384 238.092C384.561 239.916 388.443 239.879 391.586 237.995C394.729 236.11 396.662 232.66 396.664 228.93C396.664 228.468 396.635 228.007 396.576 227.548L379.334 236.548L375.767 238.41L371.597 240.586V237.966L375.795 235.774L377.836 234.707L401.221 222.511ZM380.716 217.491C384.914 215.298 389.958 215.703 393.771 218.538L393.467 218.697L391.425 219.763C388.249 217.946 384.372 217.987 381.233 219.871C378.095 221.755 376.165 225.2 376.16 228.926C376.16 229.385 376.19 229.843 376.248 230.299L393.473 221.311L397.04 219.45L401.221 217.265V219.886L397.004 222.088L394.963 223.153L376.804 232.63L375.793 233.158L374.766 233.694L371.597 235.349V232.726L372.673 232.164C373.493 231.736 373.981 230.846 373.912 229.907C373.887 229.583 373.875 229.257 373.875 228.93C373.875 224.103 376.518 219.684 380.716 217.491Z" fill="white"/>
</g>
</g>
</g>
<g filter="url(#filter15_d)">
<rect x="269.344" y="183.503" width="57.2473" height="57.2473" rx="12" fill="white"/>
</g>
<g filter="url(#filter16_d)">
<path d="M296.059 226.438C303.963 226.438 310.371 220.031 310.371 212.126C310.371 204.222 303.963 197.815 296.059 197.815C288.155 197.815 281.747 204.222 281.747 212.126C281.747 220.031 288.155 226.438 296.059 226.438Z" fill="white"/>
<g clip-path="url(#clip7)">
<path d="M296.059 202.792L294.347 203.777L289.682 206.475L287.97 207.459V216.793L289.682 217.778L294.39 220.475L296.102 221.46L297.814 220.475L302.436 217.778L304.148 216.793V207.459L302.436 206.475L297.771 203.777L296.059 202.792ZM291.394 214.824V209.429L296.059 206.731L300.724 209.429V214.824L296.059 217.521L291.394 214.824Z" fill="#2A5ADA"/>
</g>
</g>
<g filter="url(#filter17_d)">
<rect x="64" y="166.08" width="74.6703" height="74.6703" rx="12" fill="white"/>
</g>
<g filter="url(#filter18_d)">
<g clip-path="url(#clip8)">
<path d="M100.09 222.082C110.4 222.082 118.758 213.725 118.758 203.415C118.758 193.105 110.4 184.747 100.09 184.747C89.7806 184.747 81.4229 193.105 81.4229 203.415C81.4229 213.725 89.7806 222.082 100.09 222.082Z" fill="#DFC457"/>
<path fillRule="evenodd" clipRule="evenodd" d="M96.8801 201.793H101.913V204.46H96.8801V210.081H100.055C101.311 210.081 102.339 209.912 103.14 209.572C103.94 209.232 104.568 208.762 105.024 208.16C105.49 207.534 105.808 206.81 105.953 206.042C106.121 205.177 106.203 204.297 106.198 203.415C106.203 202.533 106.121 201.653 105.953 200.787C105.808 200.02 105.491 199.296 105.024 198.67C104.568 198.068 103.939 197.597 103.14 197.258C102.339 196.917 101.311 196.748 100.055 196.748H96.8801V201.794V201.793ZM93.6529 204.46H91.9238V201.794H93.6529V194.081H101.294C102.706 194.081 103.927 194.326 104.96 194.813C105.992 195.301 106.835 195.968 107.489 196.813C108.142 197.658 108.629 198.648 108.947 199.78C109.266 200.913 109.425 202.126 109.425 203.415C109.433 204.642 109.272 205.865 108.946 207.049C108.629 208.181 108.142 209.171 107.488 210.016C106.835 210.862 105.992 211.528 104.96 212.017C103.927 212.505 102.704 212.749 101.294 212.749H93.6529V204.46Z" fill="white"/>
</g>
</g>
<defs>
<filter id="filter0_d" x="327.305" y="0.384521" width="233.695" height="233.695" filterUnits="userSpaceOnUse" color-interpolation-filters="sRGB">
<feFlood flood-opacity="0" result="BackgroundImageFix"/>
<feColorMatrix in="SourceAlpha" type="matrix" values="0 0 0 0 0 0 0 0 0 0 0 0 0 0 0 0 0 0 127 0"/>
<feOffset dx="-10" dy="14"/>
<feGaussianBlur stdDeviation="27"/>
<feColorMatrix type="matrix" values="0 0 0 0 0.00392157 0 0 0 0 0.141176 0 0 0 0 0.290196 0 0 0 0.1 0"/>
<feBlend mode="normal" in2="BackgroundImageFix" result="effect1_dropShadow"/>
<feBlend mode="normal" in="SourceGraphic" in2="effect1_dropShadow" result="shape"/>
</filter>
<filter id="filter1_d" x="396.634" y="61.8083" width="110.848" height="110.848" filterUnits="userSpaceOnUse" color-interpolation-filters="sRGB">
<feFlood flood-opacity="0" result="BackgroundImageFix"/>
<feColorMatrix in="SourceAlpha" type="matrix" values="0 0 0 0 0 0 0 0 0 0 0 0 0 0 0 0 0 0 127 0"/>
<feOffset dy="14"/>
<feGaussianBlur stdDeviation="12"/>
<feColorMatrix type="matrix" values="0 0 0 0 0.968627 0 0 0 0 0.576471 0 0 0 0 0.101961 0 0 0 0.2 0"/>
<feBlend mode="normal" in2="BackgroundImageFix" result="effect1_dropShadow"/>
<feBlend mode="normal" in="SourceGraphic" in2="effect1_dropShadow" result="shape"/>
</filter>
<filter id="filter2_d" x="133.162" y="32.7416" width="162.758" height="162.758" filterUnits="userSpaceOnUse" color-interpolation-filters="sRGB">
<feFlood flood-opacity="0" result="BackgroundImageFix"/>
<feColorMatrix in="SourceAlpha" type="matrix" values="0 0 0 0 0 0 0 0 0 0 0 0 0 0 0 0 0 0 127 0"/>
<feOffset dx="-10" dy="14"/>
<feGaussianBlur stdDeviation="27"/>
<feColorMatrix type="matrix" values="0 0 0 0 0.00392157 0 0 0 0 0.141176 0 0 0 0 0.290196 0 0 0 0.1 0"/>
<feBlend mode="normal" in2="BackgroundImageFix" result="effect1_dropShadow"/>
<feBlend mode="normal" in="SourceGraphic" in2="effect1_dropShadow" result="shape"/>
</filter>
<filter id="filter3_d" x="146.852" y="66.4312" width="115.379" height="115.379" filterUnits="userSpaceOnUse" color-interpolation-filters="sRGB">
<feFlood flood-opacity="0" result="BackgroundImageFix"/>
<feColorMatrix in="SourceAlpha" type="matrix" values="0 0 0 0 0 0 0 0 0 0 0 0 0 0 0 0 0 0 127 0"/>
<feOffset dx="-20" dy="24"/>
<feGaussianBlur stdDeviation="22"/>
<feColorMatrix type="matrix" values="0 0 0 0 0.00392157 0 0 0 0 0.141176 0 0 0 0 0.290196 0 0 0 0.2 0"/>
<feBlend mode="normal" in2="BackgroundImageFix" result="effect1_dropShadow"/>
<feBlend mode="normal" in="SourceGraphic" in2="effect1_dropShadow" result="shape"/>
</filter>
<filter id="filter4_d" x="205.344" y="21.5411" width="212.538" height="212.538" filterUnits="userSpaceOnUse" color-interpolation-filters="sRGB">
<feFlood flood-opacity="0" result="BackgroundImageFix"/>
<feColorMatrix in="SourceAlpha" type="matrix" values="0 0 0 0 0 0 0 0 0 0 0 0 0 0 0 0 0 0 127 0"/>
<feOffset dx="-10" dy="14"/>
<feGaussianBlur stdDeviation="27"/>
<feColorMatrix type="matrix" values="0 0 0 0 0.00392157 0 0 0 0 0.141176 0 0 0 0 0.290196 0 0 0 0.1 0"/>
<feBlend mode="normal" in2="BackgroundImageFix" result="effect1_dropShadow"/>
<feBlend mode="normal" in="SourceGraphic" in2="effect1_dropShadow" result="shape"/>
</filter>
<filter id="filter5_d" x="269.735" y="77.6757" width="100.269" height="100.269" filterUnits="userSpaceOnUse" color-interpolation-filters="sRGB">
<feFlood flood-opacity="0" result="BackgroundImageFix"/>
<feColorMatrix in="SourceAlpha" type="matrix" values="0 0 0 0 0 0 0 0 0 0 0 0 0 0 0 0 0 0 127 0"/>
<feOffset dy="14"/>
<feGaussianBlur stdDeviation="12"/>
<feColorMatrix type="matrix" values="0 0 0 0 0.384314 0 0 0 0 0.494118 0 0 0 0 0.917647 0 0 0 0.2 0"/>
<feBlend mode="normal" in2="BackgroundImageFix" result="effect1_dropShadow"/>
<feBlend mode="normal" in="SourceGraphic" in2="effect1_dropShadow" result="shape"/>
</filter>
<filter id="filter6_d" x="92.0938" y="104.923" width="203.827" height="203.827" filterUnits="userSpaceOnUse" color-interpolation-filters="sRGB">
<feFlood flood-opacity="0" result="BackgroundImageFix"/>
<feColorMatrix in="SourceAlpha" type="matrix" values="0 0 0 0 0 0 0 0 0 0 0 0 0 0 0 0 0 0 127 0"/>
<feOffset dx="-10" dy="14"/>
<feGaussianBlur stdDeviation="27"/>
<feColorMatrix type="matrix" values="0 0 0 0 0.00392157 0 0 0 0 0.141176 0 0 0 0 0.290196 0 0 0 0.1 0"/>
<feBlend mode="normal" in2="BackgroundImageFix" result="effect1_dropShadow"/>
<feBlend mode="normal" in="SourceGraphic" in2="effect1_dropShadow" result="shape"/>
</filter>
<filter id="filter7_d" x="154.453" y="158.88" width="95.9135" height="95.9135" filterUnits="userSpaceOnUse" color-interpolation-filters="sRGB">
<feFlood flood-opacity="0" result="BackgroundImageFix"/>
<feColorMatrix in="SourceAlpha" type="matrix" values="0 0 0 0 0 0 0 0 0 0 0 0 0 0 0 0 0 0 127 0"/>
<feOffset dy="14"/>
<feGaussianBlur stdDeviation="12"/>
<feColorMatrix type="matrix" values="0 0 0 0 0.733333 0 0 0 0 0.733333 0 0 0 0 0.803922 0 0 0 0.2 0"/>
<feBlend mode="normal" in2="BackgroundImageFix" result="effect1_dropShadow"/>
<feBlend mode="normal" in="SourceGraphic" in2="effect1_dropShadow" result="shape"/>
</filter>
<filter id="filter8_d" x="166.764" y="218.173" width="203.827" height="203.827" filterUnits="userSpaceOnUse" color-interpolation-filters="sRGB">
<feFlood flood-opacity="0" result="BackgroundImageFix"/>
<feColorMatrix in="SourceAlpha" type="matrix" values="0 0 0 0 0 0 0 0 0 0 0 0 0 0 0 0 0 0 127 0"/>
<feOffset dx="-10" dy="14"/>
<feGaussianBlur stdDeviation="27"/>
<feColorMatrix type="matrix" values="0 0 0 0 0.00392157 0 0 0 0 0.141176 0 0 0 0 0.290196 0 0 0 0.1 0"/>
<feBlend mode="normal" in2="BackgroundImageFix" result="effect1_dropShadow"/>
<feBlend mode="normal" in="SourceGraphic" in2="effect1_dropShadow" result="shape"/>
</filter>
<filter id="filter9_d" x="229.123" y="272.13" width="95.9135" height="95.9135" filterUnits="userSpaceOnUse" color-interpolation-filters="sRGB">
<feFlood flood-opacity="0" result="BackgroundImageFix"/>
<feColorMatrix in="SourceAlpha" type="matrix" values="0 0 0 0 0 0 0 0 0 0 0 0 0 0 0 0 0 0 127 0"/>
<feOffset dy="14"/>
<feGaussianBlur stdDeviation="12"/>
<feColorMatrix type="matrix" values="0 0 0 0 0.141176 0 0 0 0 0.427451 0 0 0 0 0.827451 0 0 0 0.2 0"/>
<feBlend mode="normal" in2="BackgroundImageFix" result="effect1_dropShadow"/>
<feBlend mode="normal" in="SourceGraphic" in2="effect1_dropShadow" result="shape"/>
</filter>
<filter id="filter10_d" x="259.61" y="290.614" width="34.9234" height="31.9294" filterUnits="userSpaceOnUse" color-interpolation-filters="sRGB">
<feFlood flood-opacity="0" result="BackgroundImageFix"/>
<feColorMatrix in="SourceAlpha" type="matrix" values="0 0 0 0 0 0 0 0 0 0 0 0 0 0 0 0 0 0 127 0"/>
<feOffset dy="0.5"/>
<feGaussianBlur stdDeviation="0.5"/>
<feColorMatrix type="matrix" values="0 0 0 0 0 0 0 0 0 0 0 0 0 0 0 0 0 0 0.204257 0"/>
<feBlend mode="normal" in2="BackgroundImageFix" result="effect1_dropShadow"/>
<feBlend mode="normal" in="SourceGraphic" in2="effect1_dropShadow" result="shape"/>
</filter>
<filter id="filter11_d" x="74.6699" y="218.173" width="182.67" height="182.67" filterUnits="userSpaceOnUse" color-interpolation-filters="sRGB">
<feFlood flood-opacity="0" result="BackgroundImageFix"/>
<feColorMatrix in="SourceAlpha" type="matrix" values="0 0 0 0 0 0 0 0 0 0 0 0 0 0 0 0 0 0 127 0"/>
<feOffset dx="-10" dy="14"/>
<feGaussianBlur stdDeviation="27"/>
<feColorMatrix type="matrix" values="0 0 0 0 0.00392157 0 0 0 0 0.141176 0 0 0 0 0.290196 0 0 0 0.1 0"/>
<feBlend mode="normal" in2="BackgroundImageFix" result="effect1_dropShadow"/>
<feBlend mode="normal" in="SourceGraphic" in2="effect1_dropShadow" result="shape"/>
</filter>
<filter id="filter12_d" x="132.094" y="266.841" width="85.3352" height="85.3352" filterUnits="userSpaceOnUse" color-interpolation-filters="sRGB">
<feFlood flood-opacity="0" result="BackgroundImageFix"/>
<feColorMatrix in="SourceAlpha" type="matrix" values="0 0 0 0 0 0 0 0 0 0 0 0 0 0 0 0 0 0 127 0"/>
<feOffset dy="14"/>
<feGaussianBlur stdDeviation="12"/>
<feColorMatrix type="matrix" values="0 0 0 0 0.14902 0 0 0 0 0.631373 0 0 0 0 0.482353 0 0 0 0.2 0"/>
<feBlend mode="normal" in2="BackgroundImageFix" result="effect1_dropShadow"/>
<feBlend mode="normal" in="SourceGraphic" in2="effect1_dropShadow" result="shape"/>
</filter>
<filter id="filter13_d" x="280.014" y="143.503" width="198.849" height="198.849" filterUnits="userSpaceOnUse" color-interpolation-filters="sRGB">
<feFlood flood-opacity="0" result="BackgroundImageFix"/>
<feColorMatrix in="SourceAlpha" type="matrix" values="0 0 0 0 0 0 0 0 0 0 0 0 0 0 0 0 0 0 127 0"/>
<feOffset dx="-10" dy="14"/>
<feGaussianBlur stdDeviation="27"/>
<feColorMatrix type="matrix" values="0 0 0 0 0.00392157 0 0 0 0 0.141176 0 0 0 0 0.290196 0 0 0 0.1 0"/>
<feBlend mode="normal" in2="BackgroundImageFix" result="effect1_dropShadow"/>
<feBlend mode="normal" in="SourceGraphic" in2="effect1_dropShadow" result="shape"/>
</filter>
<filter id="filter14_d" x="339.697" y="196.215" width="93.4244" height="93.4244" filterUnits="userSpaceOnUse" color-interpolation-filters="sRGB">
<feFlood flood-opacity="0" result="BackgroundImageFix"/>
<feColorMatrix in="SourceAlpha" type="matrix" values="0 0 0 0 0 0 0 0 0 0 0 0 0 0 0 0 0 0 127 0"/>
<feOffset dy="14"/>
<feGaussianBlur stdDeviation="12"/>
<feColorMatrix type="matrix" values="0 0 0 0 0.341176 0 0 0 0 0.270588 0 0 0 0 0.909804 0 0 0 0.2 0"/>
<feBlend mode="normal" in2="BackgroundImageFix" result="effect1_dropShadow"/>
<feBlend mode="normal" in="SourceGraphic" in2="effect1_dropShadow" result="shape"/>
</filter>
<filter id="filter15_d" x="205.344" y="143.503" width="165.247" height="165.247" filterUnits="userSpaceOnUse" color-interpolation-filters="sRGB">
<feFlood flood-opacity="0" result="BackgroundImageFix"/>
<feColorMatrix in="SourceAlpha" type="matrix" values="0 0 0 0 0 0 0 0 0 0 0 0 0 0 0 0 0 0 127 0"/>
<feOffset dx="-10" dy="14"/>
<feGaussianBlur stdDeviation="27"/>
<feColorMatrix type="matrix" values="0 0 0 0 0.00392157 0 0 0 0 0.141176 0 0 0 0 0.290196 0 0 0 0.1 0"/>
<feBlend mode="normal" in2="BackgroundImageFix" result="effect1_dropShadow"/>
<feBlend mode="normal" in="SourceGraphic" in2="effect1_dropShadow" result="shape"/>
</filter>
<filter id="filter16_d" x="257.747" y="187.815" width="76.6236" height="76.6236" filterUnits="userSpaceOnUse" color-interpolation-filters="sRGB">
<feFlood flood-opacity="0" result="BackgroundImageFix"/>
<feColorMatrix in="SourceAlpha" type="matrix" values="0 0 0 0 0 0 0 0 0 0 0 0 0 0 0 0 0 0 127 0"/>
<feOffset dy="14"/>
<feGaussianBlur stdDeviation="12"/>
<feColorMatrix type="matrix" values="0 0 0 0 0.141176 0 0 0 0 0.427451 0 0 0 0 0.827451 0 0 0 0.2 0"/>
<feBlend mode="normal" in2="BackgroundImageFix" result="effect1_dropShadow"/>
<feBlend mode="normal" in="SourceGraphic" in2="effect1_dropShadow" result="shape"/>
</filter>
<filter id="filter17_d" x="0" y="126.08" width="182.67" height="182.67" filterUnits="userSpaceOnUse" color-interpolation-filters="sRGB">
<feFlood flood-opacity="0" result="BackgroundImageFix"/>
<feColorMatrix in="SourceAlpha" type="matrix" values="0 0 0 0 0 0 0 0 0 0 0 0 0 0 0 0 0 0 127 0"/>
<feOffset dx="-10" dy="14"/>
<feGaussianBlur stdDeviation="27"/>
<feColorMatrix type="matrix" values="0 0 0 0 0.00392157 0 0 0 0 0.141176 0 0 0 0 0.290196 0 0 0 0.1 0"/>
<feBlend mode="normal" in2="BackgroundImageFix" result="effect1_dropShadow"/>
<feBlend mode="normal" in="SourceGraphic" in2="effect1_dropShadow" result="shape"/>
</filter>
<filter id="filter18_d" x="57.4229" y="174.747" width="85.3352" height="85.3352" filterUnits="userSpaceOnUse" color-interpolation-filters="sRGB">
<feFlood flood-opacity="0" result="BackgroundImageFix"/>
<feColorMatrix in="SourceAlpha" type="matrix" values="0 0 0 0 0 0 0 0 0 0 0 0 0 0 0 0 0 0 127 0"/>
<feOffset dy="14"/>
<feGaussianBlur stdDeviation="12"/>
<feColorMatrix type="matrix" values="0 0 0 0 0.87451 0 0 0 0 0.768627 0 0 0 0 0.341176 0 0 0 0.2 0"/>
<feBlend mode="normal" in2="BackgroundImageFix" result="effect1_dropShadow"/>
<feBlend mode="normal" in="SourceGraphic" in2="effect1_dropShadow" result="shape"/>
</filter>
<clipPath id="clip0">
<rect width="62.8475" height="62.8475" fill="white" transform="translate(420.634 71.8083)"/>
</clipPath>
<clipPath id="clip1">
<rect width="27.3791" height="27.3791" fill="white" transform="translate(210.852 86.4312)"/>
</clipPath>
<clipPath id="clip2">
<rect width="47.9135" height="47.9135" fill="white" transform="translate(178.453 168.88)"/>
</clipPath>
<clipPath id="clip3">
<rect width="47.9135" height="47.9135" fill="white" transform="translate(253.123 282.13)"/>
</clipPath>
<clipPath id="clip4">
<rect width="37.3352" height="37.3352" fill="white" transform="translate(156.094 276.841)"/>
</clipPath>
<clipPath id="clip5">
<rect width="45.4244" height="45.4244" fill="white" transform="translate(363.697 206.215)"/>
</clipPath>
<clipPath id="clip6">
<rect width="29.6246" height="25.6747" fill="white" transform="translate(371.597 216.09)"/>
</clipPath>
<clipPath id="clip7">
<rect width="16.1786" height="18.6676" fill="white" transform="translate(287.97 202.792)"/>
</clipPath>
<clipPath id="clip8">
<rect width="37.3352" height="37.3352" fill="white" transform="translate(81.4229 184.747)"/>
</clipPath>
</defs>
</svg>
