<svg width="600" height="560" viewBox="0 0 600 560" fill="none" xmlns="http://www.w3.org/2000/svg">
<ellipse opacity="0.15" cx="314.771" cy="280" rx="245.229" ry="245" fill="#E7EFFF"/>
<ellipse opacity="0.2" cx="314.771" cy="279.999" rx="163.077" ry="162.925" fill="#E7EFFF"/>
<ellipse opacity="0.4" cx="314.772" cy="280" rx="77.2471" ry="77.175" fill="#E7EFFF"/>
<path opacity="0.3" fill-rule="evenodd" clip-rule="evenodd" d="M479.561 310.825L509.313 310.825C509.313 319.337 502.653 326.237 494.437 326.237C486.222 326.237 479.561 319.337 479.561 310.825Z" fill="#C4D7FF"/>
<rect opacity="0.5" width="28.8158" height="28.8158" transform="matrix(0.707436 0.706777 -0.707436 0.706777 366.615 376.878)" fill="#C4D7FF"/>
<rect opacity="0.2" width="12.8799" height="12.8799" transform="matrix(0.707436 0.706777 -0.707436 0.706777 107.411 430.82)" fill="#C4D7FF"/>
<path opacity="0.3" fill-rule="evenodd" clip-rule="evenodd" d="M303.254 500.177L287.828 500.177C287.828 508.689 294.734 515.589 303.254 515.589L303.254 500.177Z" fill="#C4D7FF"/>
<path opacity="0.3" fill-rule="evenodd" clip-rule="evenodd" d="M367.166 66.4287H356.147C356.147 60.3487 361.08 55.4199 367.166 55.4199V66.4287Z" fill="#C4D7FF"/>
<rect opacity="0.2" width="13.1895" height="13.1895" transform="matrix(-0.707437 0.706776 -0.707437 -0.706776 284.452 156.115)" fill="#C4D7FF"/>
<rect opacity="0.2" width="13.1895" height="13.1895" transform="matrix(-0.707437 0.706776 -0.707437 -0.706776 557.725 109.878)" fill="#C4D7FF"/>
<rect opacity="0.2" width="13.1895" height="13.1895" transform="matrix(-0.707437 0.706777 -0.707436 -0.706777 59.6616 261.8)" fill="#C4D7FF"/>
<path opacity="0.3" fill-rule="evenodd" clip-rule="evenodd" d="M112.625 202.938L112.625 238.167C131.491 238.167 146.785 222.394 146.785 202.938L112.625 202.938Z" fill="#C4D7FF"/>
<ellipse cx="463.583" cy="211.196" rx="14.8758" ry="14.8619" fill="#E7EFFF"/>
<ellipse opacity="0.2" cx="526.392" cy="433.572" rx="9.36623" ry="9.35749" fill="#C4D7FF"/>
<ellipse opacity="0.2" cx="162.763" cy="68.0805" rx="7.16241" ry="7.15573" fill="#C4D7FF"/>
<ellipse opacity="0.2" cx="187.555" cy="320.733" rx="12.121" ry="12.1097" fill="#C4D7FF"/>
<g clip-path="url(#clip0_35683_170863)">
<path d="M170.507 515.652C183.609 515.652 194.23 505.041 194.23 491.951C194.23 478.861 183.609 468.25 170.507 468.25C157.405 468.25 146.784 478.861 146.784 491.951C146.784 505.041 157.405 515.652 170.507 515.652Z" fill="#1D2227"/>
<path d="M162.811 501.767H158.739L171.852 479.074H175.251L176.746 484.822H180.295L177.979 489.077L181.341 501.842H177.792L175.662 492.996L170.694 501.842H166.622L174.243 488.555L173.197 483.404L162.811 501.767Z" fill="white"/>
</g>
<g clip-path="url(#clip1_35683_170863)">
<path d="M83.6427 365.75C96.8478 365.75 107.553 355.055 107.553 341.862C107.553 328.669 96.8478 317.975 83.6427 317.975C70.4377 317.975 59.7329 328.669 59.7329 341.862C59.7329 355.055 70.4377 365.75 83.6427 365.75Z" fill="#23292F"/>
<path d="M93.6795 330.665H97.7858L89.2416 338.182C86.1485 340.903 81.1347 340.903 78.0416 338.182L69.4985 330.665H73.6048L80.0953 336.375C82.0536 338.099 85.2296 338.099 87.189 336.375L93.6795 330.665ZM73.5526 352.686H69.4463L78.0428 345.123C81.1358 342.402 86.1497 342.402 89.2427 345.123L97.8392 352.686H93.7329L87.189 346.93C85.2307 345.206 82.0548 345.206 80.0953 346.93L73.5526 352.686Z" fill="white"/>
</g>
<g clip-path="url(#clip2_35683_170863)">
<path d="M453.143 490.609C453.143 503.413 442.754 513.793 429.938 513.793C417.122 513.793 406.732 503.413 406.732 490.609C406.732 477.805 417.122 467.425 429.938 467.425C442.754 467.425 453.143 477.805 453.143 490.609Z" fill="#E6007A"/>
<path fill-rule="evenodd" clip-rule="evenodd" d="M421.117 486.971C421.117 481.391 425.66 476.88 431.217 476.88C436.775 476.88 441.318 481.391 441.318 486.971C441.318 492.283 437.203 496.634 431.992 497.035C431.992 497.035 430.736 497.115 430.416 497.168C428.973 497.355 427.744 498.45 427.423 499.944C427.423 499.944 426.996 501.893 426.969 502.053C426.809 502.801 426.06 503.281 425.312 503.121C424.564 502.961 424.083 502.214 424.243 501.466C424.27 501.306 427.423 486.624 427.423 486.624C427.583 485.876 428.332 485.396 429.08 485.556C429.828 485.716 430.309 486.463 430.149 487.211L428.839 493.244L428.599 494.419C428.572 494.499 428.652 494.579 428.732 494.552C428.821 494.539 428.928 494.521 429.053 494.499C429.191 494.475 429.352 494.447 429.534 494.419C430.229 494.312 431.645 494.232 431.645 494.232C435.466 494.018 438.512 490.841 438.512 486.971C438.512 482.833 435.038 479.496 430.843 479.71C427.076 479.896 424.03 482.993 423.923 486.757C423.896 487.638 424.03 488.519 424.324 489.347C424.564 490.094 424.163 490.895 423.442 491.135C422.694 491.375 421.892 490.975 421.652 490.254C421.304 489.186 421.117 488.092 421.117 486.971ZM429.935 501.413C430.122 500.478 431.03 499.918 431.939 500.105C432.874 500.292 433.435 501.173 433.248 502.107C433.061 503.041 432.153 503.602 431.244 503.415C430.309 503.228 429.748 502.32 429.935 501.413Z" fill="#FEFEFE"/>
</g>
<g clip-path="url(#clip3_35683_170863)">
<path d="M311.093 325.325C346.306 325.325 374.853 296.805 374.853 261.625C374.853 226.444 346.306 197.925 311.093 197.925C275.88 197.925 247.333 226.444 247.333 261.625C247.333 296.805 275.88 325.325 311.093 325.325Z" fill="white"/>
<path d="M290.765 299.091C291.569 296.096 292.378 293.078 293.181 290.083C293.412 289.224 293.412 289.224 292.59 289.004C287.414 287.619 282.239 286.234 277.086 284.854C276.198 284.616 276.198 284.616 276.447 283.688C277.051 281.436 277.654 279.184 278.258 276.932C278.483 276.096 278.539 276.062 279.339 276.276C280.472 276.579 281.582 276.876 282.74 277.087C284.377 277.376 285.401 276.754 286.004 275.124C286.361 274.15 286.635 273.128 286.903 272.13C289.798 261.335 292.687 250.563 295.582 239.768C295.837 238.817 296.042 237.876 296.23 236.906C296.54 235.397 295.846 234.166 294.44 233.64C293.3 233.186 292.101 232.865 290.917 232.573C290.356 232.448 290.234 232.191 290.384 231.634C291.041 229.272 291.67 226.927 292.283 224.553C292.444 223.95 292.71 223.847 293.265 223.995C298.457 225.41 303.638 226.772 308.836 228.164C309.724 228.401 309.724 228.401 309.973 227.473C310.702 224.757 311.459 222.023 312.165 219.301C312.339 218.651 312.595 218.496 313.211 218.685C315.448 219.309 317.663 219.927 319.919 220.481C320.563 220.654 320.656 220.927 320.488 221.554C319.725 224.311 319.006 227.079 318.243 229.836C318.075 230.463 318.225 230.702 318.809 230.833C319.999 231.102 321.141 231.458 322.325 231.75C323.146 231.97 323.146 231.97 323.371 231.134C324.087 228.464 324.809 225.771 325.525 223.102C325.805 222.057 325.805 222.057 326.827 222.33C328.937 222.895 331.047 223.46 333.157 224.025C334.09 224.275 334.09 224.275 333.835 225.227C333.069 228.082 332.325 230.943 331.515 233.787C331.341 234.437 331.507 234.705 332.066 234.93C335.739 236.411 338.821 238.679 340.986 242.145C342.015 243.813 342.641 245.648 342.851 247.62C343.35 252.058 342.092 255.951 339.05 259.218C336.849 261.564 334.127 262.926 331.088 263.605C330.205 263.792 329.296 263.897 328.388 264.176C329.278 264.763 330.19 265.355 331.074 265.965C333.045 267.314 334.689 268.998 335.799 271.161C337.229 273.908 337.791 276.87 337.369 280.041C336.512 286.256 333.135 290.503 327.712 293.057C324 294.825 320.072 295.092 316.115 294.58C315.468 294.507 315.196 294.633 315.016 295.306C314.179 298.516 313.303 301.69 312.444 304.894C309.69 304.157 306.936 303.419 304.204 302.688C304.256 302.404 304.309 302.119 304.383 301.84C305.118 299.101 305.83 296.356 306.616 293.605C306.796 292.932 306.646 292.693 306.034 292.579C304.978 292.345 303.946 292.02 302.896 291.763C301.608 291.418 301.778 291.315 301.423 292.638C300.623 295.534 299.851 298.413 299.05 301.309C296.274 300.565 293.52 299.828 290.765 299.091ZM302.752 270.998C302.752 270.998 302.774 271.004 302.752 270.998C302.319 272.699 301.843 274.388 301.41 276.088C301.171 277.069 300.814 278.044 300.753 279.072C300.704 280.054 300.994 280.48 301.858 280.811C303.985 281.58 306.174 282.116 308.341 282.646C310.152 283.081 311.983 283.447 313.874 283.406C319.924 283.309 323.62 276.983 322.099 271.823C321.387 269.418 319.574 268.012 317.465 267C316.223 266.394 314.897 266.014 313.583 265.587C310.843 264.705 308.058 264.083 305.294 263.294C304.961 263.205 304.797 263.285 304.697 263.656C304.059 266.123 303.405 268.561 302.752 270.998ZM309.262 246.814C308.683 248.973 308.119 251.161 307.496 253.309C307.322 253.959 307.466 254.221 308.094 254.364C309.572 254.71 311.01 255.12 312.469 255.536C314.811 256.212 317.203 256.703 319.647 256.91C323.214 257.193 325.923 255.703 327.283 252.584C328.59 249.575 328.086 246.305 325.472 244.336C323.843 243.129 321.942 242.496 320.028 241.909C317.359 241.12 314.653 240.47 311.978 239.704C311.378 239.543 311.145 239.705 310.983 240.308C310.448 242.479 309.847 244.632 309.262 246.814Z" fill="#F8931D"/>
</g>
<g clip-path="url(#clip4_35683_170863)">
<path d="M453.325 368.2C474.318 368.2 491.336 351.198 491.336 330.225C491.336 309.252 474.318 292.25 453.325 292.25C432.333 292.25 415.315 309.252 415.315 330.225C415.315 351.198 432.333 368.2 453.325 368.2Z" fill="#1A53F0"/>
<path d="M443.481 333.287C440.738 333.288 438.109 334.378 436.171 336.317C434.233 338.255 433.145 340.883 433.146 343.623C433.145 346.362 434.233 348.99 436.17 350.928C438.108 352.866 440.736 353.957 443.478 353.959C444.836 353.959 446.181 353.691 447.436 353.172C448.691 352.652 449.831 351.89 450.791 350.931C451.751 349.971 452.512 348.831 453.031 347.577C453.551 346.324 453.818 344.98 453.817 343.623C453.818 342.266 453.551 340.922 453.032 339.669C452.513 338.415 451.751 337.276 450.792 336.316C449.832 335.356 448.692 334.595 447.438 334.075C446.183 333.555 444.839 333.287 443.481 333.287V333.287ZM443.481 350.833C441.569 350.832 439.736 350.072 438.384 348.721C437.033 347.37 436.275 345.538 436.275 343.628C436.275 342.682 436.46 341.745 436.822 340.871C437.184 339.996 437.715 339.202 438.384 338.533C439.053 337.863 439.847 337.332 440.722 336.97C441.596 336.607 442.534 336.42 443.481 336.419C444.428 336.42 445.365 336.606 446.24 336.969C447.115 337.331 447.91 337.862 448.579 338.532C449.248 339.201 449.779 339.996 450.141 340.87C450.503 341.744 450.689 342.681 450.688 343.628C450.686 345.537 449.926 347.368 448.575 348.718C447.224 350.069 445.392 350.83 443.481 350.833V350.833ZM465.56 311.237C464.202 311.238 462.857 311.506 461.603 312.026C460.348 312.545 459.209 313.307 458.249 314.267C457.289 315.227 456.528 316.366 456.009 317.62C455.49 318.873 455.223 320.217 455.223 321.574C455.222 324.313 456.31 326.941 458.248 328.88C460.186 330.818 462.815 331.908 465.558 331.91C466.916 331.91 468.261 331.642 469.515 331.122C470.77 330.603 471.91 329.841 472.87 328.881C473.83 327.922 474.592 326.782 475.111 325.528C475.63 324.274 475.897 322.931 475.896 321.574C475.897 320.217 475.63 318.873 475.111 317.619C474.592 316.365 473.83 315.226 472.87 314.266C471.91 313.306 470.77 312.545 469.515 312.025C468.261 311.505 466.916 311.238 465.558 311.237H465.56ZM465.56 328.784C464.613 328.784 463.676 328.597 462.801 328.235C461.926 327.873 461.132 327.342 460.462 326.673C459.793 326.004 459.262 325.209 458.9 324.335C458.538 323.461 458.352 322.524 458.352 321.578C458.352 320.632 458.537 319.695 458.899 318.821C459.261 317.946 459.792 317.152 460.461 316.483C461.131 315.813 461.926 315.282 462.8 314.92C463.675 314.557 464.613 314.371 465.56 314.37C466.507 314.371 467.444 314.558 468.319 314.92C469.193 315.283 469.988 315.814 470.657 316.483C471.326 317.153 471.856 317.947 472.218 318.821C472.58 319.696 472.766 320.632 472.765 321.578C472.763 323.487 472.003 325.318 470.653 326.668C469.302 328.019 467.471 328.78 465.56 328.784V328.784ZM443.481 311.237C441.094 311.24 438.782 312.067 436.935 313.578C435.089 315.088 433.821 317.19 433.347 319.527C432.873 321.863 433.222 324.292 434.334 326.402C435.447 328.511 437.254 330.172 439.451 331.103C441.65 332.031 444.103 332.171 446.393 331.497C448.683 330.824 450.669 329.38 452.014 327.41C453.36 325.439 453.984 323.063 453.778 320.686C453.572 318.308 452.551 316.074 450.885 314.363H453.815V311.237H443.481ZM450.688 321.574C450.689 322.52 450.502 323.456 450.14 324.33C449.778 325.204 449.247 325.999 448.578 326.668C447.909 327.337 447.114 327.868 446.24 328.23C445.365 328.592 444.427 328.779 443.481 328.779C441.569 328.778 439.736 328.018 438.384 326.667C437.033 325.316 436.275 323.484 436.275 321.574C436.275 319.664 437.033 317.831 438.384 316.48C439.736 315.129 441.569 314.369 443.481 314.368C445.392 314.371 447.225 315.131 448.576 316.482C449.928 317.833 450.688 319.664 450.691 321.574H450.688V321.574Z" fill="white"/>
</g>
<g clip-path="url(#clip5_35683_170863)">
<path d="M168.861 233.45C194.593 233.45 215.454 212.608 215.454 186.9C215.454 161.191 194.593 140.35 168.861 140.35C143.128 140.35 122.267 161.191 122.267 186.9C122.267 212.608 143.128 233.45 168.861 233.45Z" fill="#627EEA"/>
<path d="M170.312 156.642V179.006L189.233 187.453L170.312 156.642Z" fill="white" fill-opacity="0.602"/>
<path d="M170.312 156.642L151.389 187.453L170.312 179.006V156.642Z" fill="white"/>
<path d="M170.312 201.946V217.142L189.245 190.973L170.312 201.946Z" fill="white" fill-opacity="0.602"/>
<path d="M170.312 217.142V201.943L151.389 190.973L170.312 217.142Z" fill="white"/>
<path d="M170.312 198.429L189.233 187.453L170.312 179.012V198.429Z" fill="white" fill-opacity="0.2"/>
<path d="M151.389 187.453L170.312 198.429V179.012L151.389 187.453Z" fill="white" fill-opacity="0.602"/>
</g>
<g clip-path="url(#clip6_35683_170863)">
<path d="M257.142 444.542C279.705 444.542 297.997 426.268 297.997 403.725C297.997 381.183 279.705 362.908 257.142 362.908C234.578 362.908 216.287 381.183 216.287 403.725C216.287 426.268 234.578 444.542 257.142 444.542Z" fill="#31CA9D"/>
<path d="M238.448 390.148C238.949 388.798 240.133 388.082 241.183 387.232C244.935 384.2 248.704 381.185 252.472 378.153C253.223 377.553 253.857 377.536 254.257 378.136C254.474 378.436 254.49 378.769 254.407 379.119C252.739 387.266 251.088 395.412 249.404 403.542C249.137 404.809 249.571 405.958 249.804 407.124C251.305 414.621 252.839 422.102 254.39 429.599C254.507 430.182 254.407 430.665 253.89 430.981C253.39 431.298 252.973 431.048 252.573 430.732C248.32 427.316 244.085 423.901 239.816 420.486C239.199 420.002 238.832 419.369 238.432 418.736C238.448 409.207 238.448 399.677 238.448 390.148Z" fill="white"/>
<path d="M260.426 376.47C265.179 379.952 269.931 383.417 274.684 386.899C275.501 387.499 275.434 388.332 274.551 388.831C267.764 392.58 260.977 396.312 254.19 400.06C254.14 400.094 254.056 400.11 253.906 400.144C254.256 398.528 254.607 396.978 254.957 395.412C256.274 389.514 257.592 383.634 258.909 377.736C259.026 377.186 259.259 376.753 259.743 376.47C259.976 376.47 260.193 376.47 260.426 376.47Z" fill="white"/>
<path d="M254.607 403.742C255.441 403.275 256.258 402.792 257.092 402.326C263.061 398.977 269.065 395.628 275.018 392.246C276.152 391.597 277.052 392.146 277.052 393.446C277.002 400.343 277.019 407.257 277.019 414.154C277.019 415.604 276.285 416.037 275.034 415.337C268.364 411.605 261.711 407.857 255.057 404.125C254.907 404.025 254.724 403.992 254.607 403.742Z" fill="white"/>
<path d="M253.973 408.007C256.458 409.373 258.893 410.722 261.327 412.055C265.663 414.438 269.982 416.82 274.317 419.219C275.535 419.885 275.585 420.635 274.468 421.451C269.965 424.75 265.479 428.049 260.977 431.331C260.027 432.031 259.209 431.747 258.959 430.631C257.275 423.167 255.624 415.704 253.957 408.257C253.94 408.207 253.957 408.157 253.973 408.007Z" fill="white"/>
</g>
<g clip-path="url(#clip7_35683_170863)">
<ellipse cx="262.551" cy="62.4548" rx="27.4805" ry="27.4548" fill="#FFE7F1"/>
<path d="M262.164 58.7457C262.972 60.1735 261.165 60.616 260.317 60.6975C259.031 60.8229 258.765 60.0795 259.016 59.1456C259.099 58.8113 259.282 58.5105 259.54 58.284C259.799 58.0575 260.12 57.9163 260.462 57.8796C260.798 57.8487 261.136 57.9135 261.437 58.0667C261.738 58.22 261.99 58.4553 262.164 58.7457Z" fill="#FC157B"/>
<path d="M267.209 56.1035C266.27 63.3138 278.932 61.8133 278.691 67.552C279.94 65.9224 280.477 61.4949 276.8 59.216C273.524 57.1841 269.255 58.2959 267.209 56.1035Z" fill="#FC157B"/>
<path d="M274.503 53.3851C274.42 53.3086 274.335 53.2334 274.253 53.1582C274.337 53.2347 274.42 53.3149 274.503 53.3851Z" fill="#FC157B"/>
<path d="M277.446 58.6407L277.439 58.6294C277.324 58.4163 277.194 58.2122 277.049 58.0189C276.622 57.4385 276.01 57.0226 275.314 56.8406C274.851 56.7207 274.378 56.6459 273.9 56.6175C273.417 56.5824 272.924 56.5624 272.425 56.536C271.426 56.4808 270.403 56.3781 269.404 56.0923C269.154 56.0208 268.904 55.9431 268.663 55.8491C268.538 55.804 268.422 55.7551 268.298 55.7024C268.175 55.6498 268.049 55.5896 267.924 55.5257C267.454 55.2674 267.019 54.9502 266.629 54.5818C265.859 53.8635 265.255 53.0487 264.649 52.259C264.078 51.4662 263.465 50.7047 262.813 49.9776C262.17 49.2653 261.409 48.6691 260.565 48.2151C259.69 47.7731 258.741 47.5009 257.766 47.4129C258.777 47.3026 259.8 47.4278 260.756 47.7789C261.72 48.1545 262.601 48.7163 263.35 49.4323C263.839 49.8924 264.298 50.3835 264.724 50.9027C267.896 50.2759 270.469 50.8325 272.446 51.913L272.491 51.9356C273.121 52.2781 273.71 52.6893 274.25 53.1615C274.336 53.2368 274.421 53.312 274.5 53.3884C274.921 53.7768 275.313 54.1957 275.673 54.642L275.7 54.6783C276.868 56.1624 277.445 57.7055 277.446 58.6407Z" fill="#FC157B"/>
<path d="M277.445 58.6404L277.438 58.626L277.445 58.6404Z" fill="#FC157B"/>
<path d="M257.926 48.3408C258.735 48.4587 259.561 48.7821 260.093 49.3988C260.625 50.0156 260.821 50.8178 260.974 51.5812C261.099 52.1729 261.198 52.7759 261.43 53.3362C261.543 53.6094 261.708 53.8488 261.845 54.1071C261.959 54.3214 262.166 54.5145 262.246 54.7438C262.26 54.7768 262.266 54.8129 262.261 54.8486C262.257 54.8843 262.244 54.9182 262.222 54.947C261.94 55.2604 261.178 54.9118 260.891 54.7715C260.394 54.5244 259.949 54.184 259.581 53.7686C258.428 52.4838 257.832 50.6348 257.868 48.9513C257.876 48.7469 257.895 48.5431 257.926 48.3408Z" fill="#FC157B"/>
<path d="M271.463 62.832C269.715 67.7296 277.646 71.015 274.675 75.9941C277.723 74.7305 279.171 70.9135 277.906 67.885C276.799 65.2263 273.527 64.2573 271.463 62.832Z" fill="#FC157B"/>
<path d="M260.974 69.2344C261.451 68.8739 261.972 68.5769 262.524 68.3506C263.083 68.126 263.663 67.9581 264.255 67.8492C265.431 67.6248 266.593 67.5697 267.57 67.1748C268.053 66.9857 268.497 66.7095 268.88 66.36C269.252 66.0138 269.536 65.5842 269.71 65.1064C269.888 64.6024 269.96 64.0668 269.922 63.5333C269.878 62.9602 269.749 62.3971 269.539 61.8623C269.974 62.3168 270.291 62.872 270.461 63.4787C270.632 64.0855 270.651 64.725 270.517 65.3408C270.364 65.9928 270.034 66.5894 269.564 67.0645C269.098 67.5247 268.537 67.8758 267.92 68.0924C267.331 68.2995 266.717 68.4261 266.095 68.4685C265.496 68.5186 264.916 68.5323 264.346 68.5662C263.195 68.6147 262.058 68.84 260.974 69.2344Z" fill="#FC157B"/>
<path d="M272.161 77.8435C271.985 77.9839 271.809 78.1331 271.615 78.2635C271.42 78.3923 271.216 78.5063 271.004 78.6044C270.563 78.8203 270.078 78.9306 269.588 78.9266C268.259 78.9015 267.32 77.9087 266.77 76.7868C266.395 76.0222 266.137 75.1961 265.692 74.4678C265.056 73.4261 263.969 72.5875 262.695 72.7429C262.175 72.8081 261.688 73.0425 261.399 73.4951C260.64 74.6771 261.73 76.333 263.12 76.0986C263.239 76.0806 263.354 76.0486 263.465 76.0034C263.576 75.9562 263.679 75.8932 263.771 75.8166C263.965 75.6543 264.112 75.4419 264.195 75.2024C264.286 74.9525 264.306 74.6822 264.253 74.4214C264.196 74.1489 264.036 73.9094 263.806 73.7533C264.073 73.8788 264.282 74.1035 264.387 74.38C264.496 74.6646 264.524 74.9741 264.468 75.2738C264.414 75.5861 264.276 75.8779 264.071 76.1187C263.962 76.2426 263.836 76.3502 263.696 76.4383C263.558 76.5254 263.41 76.5957 263.255 76.6477C262.942 76.7553 262.608 76.79 262.279 76.7492C261.817 76.6832 261.381 76.4935 261.017 76.2002C260.587 75.8592 260.268 75.4129 259.879 75.0294C259.434 74.5604 258.909 74.1754 258.328 73.8924C257.928 73.7159 257.509 73.5856 257.079 73.5038C256.863 73.4587 256.644 73.4261 256.426 73.3986C256.326 73.3885 255.836 73.2794 255.768 73.3434C256.443 72.7192 257.18 72.1649 257.966 71.6887C258.773 71.208 259.64 70.8358 260.544 70.5818C261.481 70.3171 262.461 70.2417 263.428 70.36C263.925 70.42 264.412 70.5464 264.877 70.736C265.363 70.931 265.812 71.2092 266.203 71.5584C266.59 71.9245 266.903 72.3626 267.125 72.8482C267.325 73.3029 267.474 73.7784 267.569 74.2659C267.854 75.7238 267.749 77.9839 269.652 78.3174C269.751 78.3367 269.851 78.3509 269.951 78.36L270.262 78.3675C270.476 78.3523 270.689 78.3216 270.898 78.276C271.332 78.1736 271.755 78.0287 272.161 77.8435Z" fill="#FC157B"/>
<path d="M261.108 76.2553L261.058 76.2158L261.108 76.2553Z" fill="#FC157B"/>
<path d="M259.401 55.6801C259.331 55.9472 259.21 56.1981 259.045 56.4184C258.736 56.8203 258.328 57.1337 257.861 57.3272C257.44 57.509 256.995 57.6264 256.54 57.6757C256.442 57.6883 256.339 57.6958 256.241 57.7033C255.952 57.7143 255.675 57.8176 255.45 57.998C255.225 58.1784 255.063 58.4266 254.988 58.7061C254.954 58.8452 254.928 58.9863 254.912 59.1285C254.867 59.4971 254.859 59.8807 254.819 60.3445C254.721 61.1337 254.494 61.9012 254.146 62.6159C253.694 63.5711 253.187 64.3407 253.304 65.4413C253.382 66.1558 253.746 66.6347 254.231 67.1286C255.105 68.0261 257.062 68.4272 256.625 70.6384C256.362 71.9584 254.181 73.3435 251.116 73.8274C251.421 73.7811 250.725 72.604 250.681 72.5288C250.353 72.0123 249.993 71.526 249.732 70.9656C249.22 69.8788 248.983 68.6215 249.192 67.4307C249.414 66.1771 250.338 65.2169 251.106 64.2592C252.02 63.1198 252.979 61.6268 253.192 60.1477C253.242 59.7892 253.277 59.3404 253.357 58.8942C253.433 58.3997 253.587 57.9207 253.814 57.4752C253.968 57.1829 254.172 56.9196 254.416 56.6967C254.543 56.5784 254.627 56.4207 254.654 56.2489C254.681 56.077 254.65 55.901 254.566 55.749L250.297 47.8702L256.698 55.6212C256.778 55.7219 256.879 55.8037 256.994 55.8609C257.109 55.918 257.235 55.949 257.363 55.9518C257.491 55.9546 257.618 55.9289 257.736 55.8768C257.853 55.8246 257.957 55.7472 258.042 55.65C258.131 55.546 258.181 55.4143 258.184 55.2773C258.188 55.1403 258.144 55.0063 258.06 54.8979C257.602 54.31 257.117 53.7108 256.648 53.1216L254.882 50.928L251.337 46.5481L249.192 43.8281L251.792 46.1558L255.565 50.3426L257.447 52.441C258.072 53.1467 258.696 53.8299 259.321 54.572L259.423 54.6974L259.446 54.8916C259.476 55.1551 259.461 55.4219 259.401 55.6801Z" fill="#FC157B"/>
<path d="M261.017 76.1956C260.678 75.9327 260.377 75.6244 260.121 75.2793C260.395 75.6079 260.695 75.9142 261.017 76.1956Z" fill="#FC157B"/>
</g>
<g clip-path="url(#clip8_35683_170863)">
<path d="M491.59 104.776C503.102 104.776 512.435 95.4523 512.435 83.951C512.435 72.4496 503.102 63.126 491.59 63.126C480.078 63.126 470.746 72.4496 470.746 83.951C470.746 95.4523 480.078 104.776 491.59 104.776Z" fill="#00DA98"/>
<path d="M482.145 76.9777V91.3435L491.375 94.6887V80.2064L501.361 76.4882L492.298 73.2129L482.145 76.9777Z" fill="white"/>
<path d="M492.893 80.8935V88.7495L502.123 92.0947V77.4434L492.893 80.8935Z" fill="white"/>
</g>
<g clip-path="url(#clip9_35683_170863)">
<path d="M538.542 231C550.393 231 560 221.402 560 209.562C560 197.723 550.393 188.125 538.542 188.125C526.691 188.125 517.084 197.723 517.084 209.562C517.084 221.402 526.691 231 538.542 231Z" fill="#27AB9B"/>
<path d="M527.98 215.993V205.904L535.639 211.662V215.993H537.594V211.256C537.594 210.898 537.426 210.56 537.14 210.345L527.851 203.362C527.1 202.797 526.025 203.333 526.025 204.273V215.993H527.98ZM549.162 215.993V205.904L541.503 211.662V215.993H539.548V211.256C539.548 210.898 539.716 210.56 540.003 210.345L549.291 203.362C550.042 202.797 551.117 203.333 551.117 204.273V215.993H549.162Z" fill="white"/>
</g>
<g clip-path="url(#clip10_35683_170863)">
<path d="M387.297 171.606C406.935 171.606 422.855 155.701 422.855 136.081C422.855 116.461 406.935 100.556 387.297 100.556C367.659 100.556 351.739 116.461 351.739 136.081C351.739 155.701 367.659 171.606 387.297 171.606Z" fill="#C7C7C7"/>
<path d="M388.294 131.799C388.337 131.644 388.368 131.523 388.402 131.406C390.103 125.509 391.804 119.616 393.498 113.716C393.716 112.961 393.241 112.394 392.542 112.397C390.364 112.41 388.185 112.404 386.009 112.404C385.355 112.404 384.954 112.711 384.771 113.351C382.717 120.478 380.659 127.604 378.607 134.733C378.576 134.841 378.53 134.895 378.421 134.93C376.866 135.402 375.311 135.887 373.757 136.365C373.645 136.4 373.586 136.457 373.552 136.568C373.213 137.639 372.869 138.71 372.528 139.781C372.512 139.832 372.5 139.885 372.481 139.974C374.141 139.458 375.771 138.957 377.425 138.444C375.948 143.586 374.477 148.701 372.999 153.843C373.092 153.843 373.151 153.843 373.213 153.843C381.959 153.843 390.708 153.843 399.454 153.843C400.025 153.843 400.447 153.53 400.605 152.975C401.096 151.258 401.592 149.54 402.064 147.82C402.281 147.028 401.735 146.53 401.127 146.533C395.466 146.546 389.805 146.543 384.144 146.543C384.079 146.543 384.017 146.543 383.942 146.543C383.955 146.483 383.958 146.445 383.967 146.41C385.016 142.804 386.065 139.195 387.111 135.589C387.142 135.484 387.189 135.437 387.291 135.405C388.858 134.955 390.426 134.499 391.993 134.049C392.133 134.008 392.204 133.941 392.244 133.795C392.552 132.693 392.871 131.593 393.185 130.49C393.203 130.43 393.216 130.367 393.238 130.272C391.571 130.785 389.948 131.289 388.294 131.799Z" fill="white"/>
</g>
<defs>
<clipPath id="clip0_35683_170863">
<rect width="47.8196" height="47.775" fill="white" transform="translate(146.784 468.25)"/>
</clipPath>
<clipPath id="clip1_35683_170863">
<rect width="47.8196" height="47.775" fill="white" transform="translate(59.7329 317.975)"/>
</clipPath>
<clipPath id="clip2_35683_170863">
<rect width="46.5935" height="46.55" fill="white" transform="translate(406.732 467.425)"/>
</clipPath>
<clipPath id="clip3_35683_170863">
<rect width="127.519" height="127.4" fill="white" transform="translate(247.333 197.925)"/>
</clipPath>
<clipPath id="clip4_35683_170863">
<rect width="76.021" height="75.95" fill="white" transform="translate(415.315 292.25)"/>
</clipPath>
<clipPath id="clip5_35683_170863">
<rect width="93.187" height="93.1" fill="white" transform="translate(122.267 140.35)"/>
</clipPath>
<clipPath id="clip6_35683_170863">
<rect width="83.3778" height="83.3" fill="white" transform="translate(215.453 362.075)"/>
</clipPath>
<clipPath id="clip7_35683_170863">
<rect width="55.1765" height="55.125" fill="white" transform="translate(235.071 35)"/>
</clipPath>
<clipPath id="clip8_35683_170863">
<rect width="41.6889" height="41.65" fill="white" transform="translate(470.746 63.126)"/>
</clipPath>
<clipPath id="clip9_35683_170863">
<rect width="42.9151" height="42.875" fill="white" transform="translate(517.084 188.125)"/>
</clipPath>
<clipPath id="clip10_35683_170863">
<rect width="71.1164" height="71.05" fill="white" transform="translate(351.739 100.556)"/>
</clipPath>
</defs>
</svg>
